<?xml version="1.0" encoding="utf-8"?>
<!-- Generator: Adobe Illustrator 18.0.0, SVG Export Plug-In . SVG Version: 6.00 Build 0)  -->
<!DOCTYPE svg PUBLIC "-//W3C//DTD SVG 1.1//EN" "http://www.w3.org/Graphics/SVG/1.1/DTD/svg11.dtd">
<svg version="1.1" id="圖層_1" xmlns="http://www.w3.org/2000/svg" xmlns:xlink="http://www.w3.org/1999/xlink" x="0px" y="0px"
	 viewBox="0 0 130.2 127.9" enable-background="new 0 0 130.2 127.9" xml:space="preserve">
<g>
	<path fill-rule="evenodd" clip-rule="evenodd" fill="#191313" d="M63.1,2.4c-33.3,0-60.4,27-60.4,60.4c0,26.7,17.3,49.3,41.3,57.3
		c3,0.6,4.1-1.3,4.1-2.9c0-1.4-0.1-6.2-0.1-11.2c-16.8,3.7-20.3-7.1-20.3-7.1c-2.7-7-6.7-8.8-6.7-8.8c-5.5-3.7,0.4-3.7,0.4-3.7
		c6.1,0.4,9.3,6.2,9.3,6.2c5.4,9.2,14.1,6.6,17.6,5c0.5-3.9,2.1-6.6,3.8-8.1c-13.4-1.5-27.5-6.7-27.5-29.8c0-6.6,2.4-12,6.2-16.2
		c-0.6-1.5-2.7-7.7,0.6-16c0,0,5.1-1.6,16.6,6.2c4.8-1.3,10-2,15.1-2c5.1,0,10.3,0.7,15.1,2c11.5-7.8,16.6-6.2,16.6-6.2
		c3.3,8.3,1.2,14.5,0.6,16c3.9,4.2,6.2,9.6,6.2,16.2c0,23.2-14.1,28.3-27.6,29.8c2.2,1.9,4.1,5.5,4.1,11.2c0,8.1-0.1,14.6-0.1,16.6
		c0,1.6,1.1,3.5,4.1,2.9c24-8,41.3-30.6,41.3-57.3C123.5,29.4,96.4,2.4,63.1,2.4z"/>
	<path fill="#191313" d="M25.6,89.1c-0.1,0.3-0.6,0.4-1,0.2c-0.4-0.2-0.7-0.6-0.5-0.9c0.1-0.3,0.6-0.4,1-0.2
		C25.5,88.4,25.7,88.8,25.6,89.1L25.6,89.1z M24.8,88.5"/>
	<path fill="#191313" d="M28,91.8c-0.3,0.3-0.9,0.1-1.2-0.3c-0.4-0.4-0.5-1-0.2-1.3c0.3-0.3,0.8-0.1,1.2,0.3
		C28.3,91,28.3,91.5,28,91.8L28,91.8z M27.5,91.2"/>
	<path fill="#191313" d="M30.4,95.3c-0.4,0.3-1,0-1.3-0.5c-0.4-0.5-0.4-1.2,0-1.4c0.4-0.3,1,0,1.3,0.5C30.8,94.4,30.8,95,30.4,95.3
		L30.4,95.3z M30.4,95.3"/>
	<path fill="#191313" d="M33.7,98.6c-0.3,0.4-1,0.3-1.6-0.2c-0.5-0.5-0.7-1.2-0.3-1.5c0.3-0.4,1-0.3,1.6,0.2
		C33.9,97.6,34,98.3,33.7,98.6L33.7,98.6z M33.7,98.6"/>
	<path fill="#191313" d="M38.2,100.6c-0.1,0.5-0.8,0.7-1.5,0.5c-0.7-0.2-1.1-0.8-1-1.2c0.1-0.5,0.8-0.7,1.5-0.5
		C37.9,99.6,38.3,100.1,38.2,100.6L38.2,100.6z M38.2,100.6"/>
	<path fill="#191313" d="M43.1,100.9c0,0.5-0.6,0.9-1.3,0.9c-0.7,0-1.3-0.4-1.3-0.9c0-0.5,0.6-0.9,1.3-0.9
		C42.5,100,43.1,100.4,43.1,100.9L43.1,100.9z M43.1,100.9"/>
	<path fill="#191313" d="M47.7,100.2c0.1,0.5-0.4,1-1.1,1.1c-0.7,0.1-1.3-0.2-1.4-0.7c-0.1-0.5,0.4-1,1.1-1.1
		C47,99.4,47.6,99.7,47.7,100.2L47.7,100.2z M47.7,100.2"/>
</g>
</svg>
